<?xml version="1.0" encoding="iso-8859-1"?>
<!-- Uploaded to: SVG Repo, www.svgrepo.com, Generator: SVG Repo Mixer Tools -->
<svg fill="#ffffff" height="800px" width="800px" version="1.1" id="Layer_1" xmlns="http://www.w3.org/2000/svg" xmlns:xlink="http://www.w3.org/1999/xlink" 
	 viewBox="0 0 512 512" xml:space="preserve">
<g>
	<g>
		<path d="M507.107,4.891c-3.494-3.494-8.347-5.26-13.279-4.826c-3.42,0.302-84.412,8.046-140.237,63.871
			c-7.668,7.67-340.922,340.924-348.699,348.702c-6.522,6.521-6.522,17.096,0,23.618l70.853,70.853
			C79.006,510.369,83.28,512,87.554,512s8.548-1.631,11.808-4.892l348.701-348.701c55.825-55.826,63.569-136.817,63.871-140.237
			C512.37,13.248,510.602,8.386,507.107,4.891z M87.555,471.682l-47.236-47.236l23.619-23.619l47.236,47.236L87.555,471.682z
			 M134.791,424.446l-47.236-47.236l230.612-230.612l47.236,47.236L134.791,424.446z M389.02,170.216l-47.236-47.236l23.618-23.618
			l47.236,47.236L389.02,170.216z M435.591,122.315l-45.906-45.906c28.912-23.158,63.241-34.172,85.094-39.189
			C469.762,59.081,458.746,93.407,435.591,122.315z"/>
	</g>
</g>
</svg>